# xmcd CD database file
#
# Track frame offsets:
#	150
#	30465
#	69777
#	93654
#	128271
#	155251
#	182707
#	217117
#	248464
#
# Disc length: 3753 seconds
#
# Revision: 0
# Processed by: cddbd v1.5.2PL0 Copyright (c) Steve Scherf et al.
# Submitted via: CDex 1.51
#
DISCID=680ea709
DTITLE=Colors - The Comtemporary Big Band Project
DYEAR=2002
DGENRE=Jazz
TTITLE0=French Toast
TTITLE1=Both Sides of the Coin
TTITLE2=Afro Centric
TTITLE3=Hymn
TTITLE4=Guantanamera
TTITLE5=Fragile
TTITLE6=Sly Punk
TTITLE7=Dos Gardenias
TTITLE8=Colors
EXTD=YEAR: 2002
EXTT0=
EXTT1=
EXTT2=
EXTT3=
EXTT4=
EXTT5=
EXTT6=
EXTT7=
EXTT8=
PLAYORDER=
